<?xml version="1.0" encoding="utf-8"?>
<!-- Generator: Adobe Illustrator 16.0.0, SVG Export Plug-In . SVG Version: 6.00 Build 0)  -->
<!DOCTYPE svg PUBLIC "-//W3C//DTD SVG 1.1//EN" "http://www.w3.org/Graphics/SVG/1.1/DTD/svg11.dtd">
<svg version="1.1" id="Layer_1" xmlns="http://www.w3.org/2000/svg" xmlns:xlink="http://www.w3.org/1999/xlink" x="0px" y="0px"
	 width="200px" height="31px" viewBox="0 0 200 31" enable-background="new 0 0 200 31" xml:space="preserve">
<g>
	<path fill="#FFFFFF" d="M83.825,10.26h-0.689c-0.037,0-0.069,0.006-0.099,0.012c-0.306,0.031-0.479,0.217-0.479,0.217l-0.58,0.577
		c-0.581-0.425-1.716-1.06-3.314-1.06c-3.244,0-5.569,2.785-5.569,6.158c0,3.449,2.478,6.182,5.697,6.182
		c1.532,0,2.811-0.715,3.014-0.842v0.639c0,2.402-1.378,3.166-2.938,3.166c-1.354,0-2.35-0.764-2.758-1.098
		c-0.308-0.229-0.64-0.129-0.793,0.18l-0.614,1.123c-0.102,0.182-0.077,0.539,0.128,0.666c0.511,0.512,2.122,1.482,4.089,1.482
		c3.091,0,5.467-1.84,5.467-5.52V10.824C84.387,10.543,84.131,10.26,83.825,10.26z M81.833,18.973c0,0-1.175,0.947-2.734,0.947
		c-1.916,0-3.449-1.738-3.449-3.756c0-1.994,1.328-3.732,3.347-3.732c1.583,0,2.606,1.228,2.836,1.662V18.973z"/>
	<path fill="#FFFFFF" d="M199.173,4.167h-1.456c-0.28,0-0.562,0.28-0.562,0.563v5.873c-0.257-0.076-1.457-0.614-2.964-0.614
		c-3.269,0-5.695,2.71-5.695,6.159c0,3.371,2.273,6.182,5.391,6.182c1.544,0,2.731-0.715,3.366-1.209
		c0.131,0.129,0.589,0.588,0.678,0.676c0.085,0.09,0.302,0.209,0.524,0.24c0.004,0,0.006,0.002,0.007,0.002
		c0.021,0.004,0.042,0.004,0.063,0.006c0.011,0,0.021,0.002,0.035,0.002h0.015h0.599c0.051,0,0,0,0,0l0.084-0.006
		c0.267-0.043,0.478-0.277,0.478-0.555V4.729C199.734,4.447,199.478,4.167,199.173,4.167z M197.178,18.164
		c-0.125,0.332-1.123,1.736-2.935,1.736c-1.89,0-3.195-1.762-3.195-3.754c0-2.019,1.482-3.73,3.424-3.73
		c1.534,0,2.706,0.689,2.706,0.689V18.164z"/>
	<path fill="#FFFFFF" d="M8.635,19.529c-0.103-0.254-0.333-0.461-0.689-0.254c-0.435,0.254-1.188,0.561-1.929,0.561
		c-0.563,0-0.982-0.203-0.982-1.203v-6.294h3.021c0.306,0,0.556-0.27,0.556-0.554v-1.048c0-0.33-0.25-0.613-0.556-0.613H5.035v-3.24
		c0-0.309-0.155-0.507-0.463-0.507H3.115c-0.307,0-0.636,0.198-0.636,0.507v3.24h-1.62c-0.331,0-0.594,0.283-0.594,0.613v1.048
		c0,0.284,0.263,0.554,0.594,0.554h1.62v6.398c0,2.098,0.678,3.525,3.028,3.525c1.404,0,2.801-0.533,3.289-0.84
		c0.281-0.18,0.417-0.385,0.29-0.693L8.635,19.529z"/>
	<path fill="#FFFFFF" d="M16.64,9.92c-1.865,0-3.088,1.025-3.428,1.228V4.659c0-0.281-0.267-0.496-0.547-0.496h-1.431
		c-0.307,0-0.579,0.215-0.579,0.496v16.763c0,0.307,0.271,0.625,0.579,0.625h1.406c0.357,0,0.572-0.295,0.572-0.625V14.06
		c0.34-0.511,1.282-1.712,3.097-1.712c1.532,0,2.354,1.15,2.354,3.094v5.979c0,0.307,0.262,0.625,0.567,0.625h1.432
		c0.281,0,0.556-0.318,0.556-0.625v-5.931C21.218,12.273,19.986,9.92,16.64,9.92"/>
	<path fill="#FFFFFF" d="M25.763,14.723c0.18-1.361,1.303-2.684,3.168-2.684c1.737,0,2.863,1.322,2.912,2.684H25.763z M28.982,9.92
		c-3.551,0-5.876,2.836-5.876,6.16c0,3.371,2.325,6.182,5.901,6.182c1.967,0,3.528-0.713,4.37-1.455
		c0.357-0.307,0.255-0.537,0.051-0.791l-0.689-1.074c-0.204-0.309-0.436-0.229-0.69-0.049c-0.715,0.51-1.532,0.959-2.888,0.959
		c-2.069,0-3.5-1.549-3.525-3.254h8.151c0.254,0,0.509-0.17,0.536-0.477c0.025-0.206,0.049-0.597,0.049-0.8
		C34.372,12.178,32.048,9.92,28.982,9.92"/>
	<path fill="#FFFFFF" d="M48.366,9.92c-1.712,0-2.875,0.707-3.49,1.205l-0.719-0.727c0,0-0.165-0.207-0.463-0.242
		c-0.032-0.006-0.06-0.033-0.094-0.033h-0.613c-0.307,0-0.645,0.336-0.645,0.613v10.685c0,0.307,0.338,0.625,0.645,0.625h1.303
		c0.486,0,0.607-0.244,0.607-0.625V14.06c0.34-0.408,1.257-1.712,3.122-1.712c1.533,0,2.33,1.125,2.33,3.041v6.033
		c0,0.307,0.328,0.625,0.634,0.625h1.433c0.28,0,0.49-0.318,0.49-0.625v-5.931C52.904,12.424,51.968,9.92,48.366,9.92"/>
	<path fill="#FFFFFF" d="M57.514,14.723c0.18-1.361,1.304-2.684,3.169-2.684c1.736,0,2.862,1.322,2.912,2.684H57.514z M60.733,9.92
		c-3.552,0-5.876,2.836-5.876,6.16c0,3.371,2.324,6.182,5.9,6.182c1.968,0,3.527-0.713,4.37-1.455
		c0.358-0.307,0.255-0.537,0.052-0.791l-0.691-1.074c-0.204-0.309-0.434-0.229-0.689-0.049c-0.715,0.51-1.532,0.959-2.887,0.959
		c-2.07,0-3.501-1.549-3.525-3.254h8.15c0.255,0,0.511-0.17,0.539-0.477c0.025-0.206,0.05-0.597,0.05-0.8
		C66.125,12.178,63.799,9.92,60.733,9.92"/>
	<path fill="#FFFFFF" d="M69.5,4.199c-0.944,0-1.686,0.765-1.686,1.735c0,0.945,0.742,1.713,1.686,1.713
		c0.972,0,1.737-0.768,1.737-1.713C71.237,4.963,70.472,4.199,69.5,4.199"/>
	<path fill="#FFFFFF" d="M70.216,10.124h-1.431c-0.306,0-0.552,0.336-0.552,0.613v10.685c0,0.303,0.246,0.625,0.552,0.625h1.431
		c0.282,0,0.575-0.322,0.575-0.625V10.737C70.791,10.459,70.498,10.124,70.216,10.124"/>
	<path fill="#FFFFFF" d="M93.126,9.92c-1.864,0-3.257,1.025-3.428,1.228V4.659c0-0.281-0.349-0.496-0.631-0.496h-1.431
		c-0.306,0-0.494,0.215-0.494,0.496v16.763c0,0.307,0.188,0.625,0.494,0.625h1.406c0.355,0,0.656-0.295,0.656-0.625V14.06
		c0.17-0.511,1.282-1.712,3.098-1.712c1.533,0,2.354,1.15,2.354,3.094v5.979c0,0.307,0.179,0.625,0.486,0.625h1.43
		c0.279,0,0.64-0.318,0.64-0.625v-5.931C97.706,12.273,96.473,9.92,93.126,9.92"/>
	<path fill="#FFFFFF" d="M105.552,19.836c-1.791,0-2.735-1.381-2.904-1.713v-5.134c0,0,1.166-0.641,2.7-0.641
		c1.939,0,3.526,1.712,3.526,3.732C108.874,18.07,107.467,19.836,105.552,19.836 M105.614,9.92c-1.507,0-2.628,0.539-2.967,0.613
		V4.659c0-0.281-0.274-0.496-0.556-0.496h-1.456c-0.307,0-0.546,0.215-0.546,0.496v16.763c0,0.307,0.239,0.625,0.546,0.625h0.344
		h0.271h0.539c0.263,0,0.537-0.18,0.642-0.281c0.056-0.055,0.267-0.283,0.444-0.461c0.679,0.455,1.734,0.967,3.05,0.967
		c3.091,0,5.491-2.814,5.491-6.188C111.416,12.633,108.885,9.92,105.614,9.92"/>
	<path fill="#FFFFFF" d="M118.718,19.836c-1.993,0-3.526-1.609-3.526-3.783c0-2.123,1.533-3.705,3.526-3.705
		c1.966,0,3.501,1.582,3.501,3.705C122.219,18.227,120.684,19.836,118.718,19.836 M118.718,9.92c-3.322,0-6.032,2.813-6.032,6.132
		c0,3.375,2.71,6.209,6.032,6.209c3.294,0,6.004-2.834,6.004-6.209C124.722,12.733,122.012,9.92,118.718,9.92"/>
	<path fill="#FFFFFF" d="M136.123,10.124h-1.304c-0.435,0-0.659,0.131-0.659,0.613v7.156c-0.17,0.537-1.073,1.943-2.785,1.943
		c-1.508,0-2.325-0.867-2.325-2.813v-6.287c0-0.277-0.208-0.613-0.517-0.613h-1.431c-0.28,0-0.607,0.336-0.607,0.613v6.109
		c0,3.092,0.891,5.416,4.418,5.416c1.357,0,2.302-0.432,2.901-0.852c0.145,0.141,0.287,0.314,0.331,0.355
		c0.102,0.102,0.384,0.281,0.646,0.281h0.717h0.358h0.257c0.306,0,0.593-0.322,0.593-0.625V10.737
		C136.716,10.459,136.429,10.124,136.123,10.124"/>
	<path fill="#FFFFFF" d="M144.971,9.92c-1.419,0-2.433,0.627-3.018,1.138l-0.662-0.687c0,0-0.206-0.248-0.565-0.248h-0.175h-0.412
		h-0.202c-0.306,0-0.496,0.336-0.496,0.613v10.685c0,0.307,0.19,0.625,0.496,0.625h1.175c0.486,0,0.886-0.115,0.886-0.625V13.93
		c0-0.202,1.015-1.582,2.751-1.582c0.358,0,0.879,0.129,1.057,0.23c0.257,0.129,0.554,0.052,0.71-0.28l0.605-1.278
		C147.504,10.227,146.094,9.92,144.971,9.92"/>
	<path fill="#FFFFFF" d="M154.963,9.92c-1.865,0-3.257,1.025-3.427,1.228V4.659c0-0.281-0.339-0.496-0.618-0.496h-1.435
		c-0.305,0-0.503,0.215-0.503,0.496v16.763c0,0.307,0.198,0.625,0.503,0.625h1.408c0.358,0,0.645-0.295,0.645-0.625V14.06
		c0.17-0.511,1.282-1.712,3.098-1.712c1.532,0,2.354,1.15,2.354,3.094v5.979c0,0.307,0.188,0.625,0.497,0.625h1.43
		c0.282,0,0.628-0.318,0.628-0.625v-5.931C159.542,12.273,158.311,9.92,154.963,9.92"/>
	<path fill="#FFFFFF" d="M167.198,19.836c-1.993,0-3.524-1.609-3.524-3.783c0-2.123,1.531-3.705,3.524-3.705
		c1.968,0,3.503,1.582,3.503,3.705C170.701,18.227,169.166,19.836,167.198,19.836 M167.198,9.92c-3.321,0-6.03,2.813-6.03,6.132
		c0,3.375,2.709,6.209,6.03,6.209c3.298,0,6.006-2.834,6.006-6.209C173.204,12.733,170.496,9.92,167.198,9.92"/>
	<path fill="#FFFFFF" d="M180.744,19.836c-1.992,0-3.526-1.609-3.526-3.783c0-2.123,1.534-3.705,3.526-3.705
		c1.968,0,3.501,1.582,3.501,3.705C184.245,18.227,182.712,19.836,180.744,19.836 M180.744,9.92c-3.323,0-6.031,2.813-6.031,6.132
		c0,3.375,2.708,6.209,6.031,6.209c3.296,0,6.002-2.834,6.002-6.209C186.746,12.733,184.04,9.92,180.744,9.92"/>
</g>
</svg>
